<svg preserveAspectRatio="none" width="100%" height="100%" overflow="visible" style="display: block;" viewBox="0 0 20 19" fill="none" xmlns="http://www.w3.org/2000/svg">
<g id="Vector">
<path fill-rule="evenodd" clip-rule="evenodd" d="M8.8906 0C7.13177 0.000537599 5.4126 0.504905 3.95045 1.44933C2.48831 2.39376 1.34886 3.73583 0.676167 5.30585C0.00347763 6.87588 -0.17224 8.60335 0.171232 10.2699C0.514703 11.9364 1.36194 13.467 2.60582 14.6684C3.8497 15.8697 5.43435 16.6878 7.15943 17.0191C8.8845 17.3504 10.6725 17.1801 12.2974 16.5297C13.9223 15.8793 15.3111 14.778 16.2882 13.3651C17.2653 11.9523 17.7868 10.2912 17.7868 8.59198C17.7857 6.3131 16.848 4.12792 15.1798 2.51676C13.5116 0.905613 11.2494 0.000360068 8.8906 0ZM8.8906 1.35917C10.3713 1.35917 11.8188 1.78336 13.0499 2.57812C14.2811 3.37287 15.2406 4.50248 15.8073 5.8241C16.3739 7.14572 16.5222 8.6 16.2333 10.003C15.9444 11.4061 15.2314 12.6948 14.1844 13.7063C13.1374 14.7179 11.8034 15.4067 10.3512 15.6858C8.8989 15.9649 7.39361 15.8217 6.02562 15.2742C4.65763 14.7268 3.48839 13.7997 2.66575 12.6103C1.84312 11.4209 1.40404 10.0225 1.40404 8.59198C1.40497 6.67399 2.19403 4.83482 3.59783 3.4786C5.00163 2.12238 6.90533 1.36007 8.8906 1.35917Z" fill="var(--fill-0, #414041)"/>
<path fill-rule="evenodd" clip-rule="evenodd" d="M19.7853 17.8336L15.3706 13.5686C15.3057 13.5037 15.228 13.4519 15.1422 13.4163C15.0564 13.3807 14.9641 13.3619 14.8707 13.3611C14.7773 13.3603 14.6847 13.3775 14.5982 13.4117C14.5118 13.4459 14.4332 13.4963 14.3672 13.5601C14.3011 13.624 14.2489 13.6998 14.2135 13.7833C14.1782 13.8669 14.1604 13.9564 14.1612 14.0466C14.162 14.1368 14.1814 14.226 14.2183 14.3089C14.2551 14.3918 14.3087 14.4668 14.3759 14.5295L18.7906 18.7925C18.8555 18.8574 18.9331 18.9092 19.0189 18.9448C19.1048 18.9804 19.1971 18.9992 19.2905 19C19.3839 19.0008 19.4765 18.9836 19.5629 18.9494C19.6494 18.9152 19.7279 18.8648 19.794 18.801C19.86 18.7371 19.9122 18.6613 19.9476 18.5778C19.983 18.4942 20.0008 18.4047 20 18.3145C19.9992 18.2243 19.9798 18.1351 19.9429 18.0522C19.906 17.9693 19.8524 17.8943 19.7853 17.8316V17.8336Z" fill="var(--fill-0, #414041)"/>
</g>
</svg>
