<svg width="21" height="24" viewBox="0 0 21 24" fill="none" xmlns="http://www.w3.org/2000/svg">
<path fill-rule="evenodd" clip-rule="evenodd" d="M2.1 8.72727V20.724C2.1 22.5338 3.50385 24 5.25945 24H15.7395C17.4846 24 18.899 22.536 18.899 20.724V8.72727H2.1ZM4.2 8.72727V20.7251C4.2 21.3295 4.6788 21.8182 5.2521 21.8182H15.7469C16.3286 21.8182 16.799 21.3207 16.799 20.7251V8.72727H4.2ZM13.65 3.27273C13.65 2.67055 13.1765 2.18182 12.6095 2.18182H8.39055C7.8162 2.18182 7.35 2.66618 7.35 3.27273C7.35 3.87491 7.82355 4.36364 8.39055 4.36364H12.6095C13.1838 4.36364 13.65 3.87927 13.65 3.27273ZM13.65 10.9058C13.65 10.3047 13.1838 9.81818 12.6 9.81818C12.0204 9.81818 11.55 10.3124 11.55 10.9058V17.4578C11.55 18.0589 12.0162 18.5455 12.6 18.5455C13.1796 18.5455 13.65 18.0513 13.65 17.4578V10.9058ZM9.45 10.9058C9.45 10.3047 8.9838 9.81818 8.4 9.81818C7.8204 9.81818 7.35 10.3124 7.35 10.9058V17.4578C7.35 18.0589 7.8162 18.5455 8.4 18.5455C8.9796 18.5455 9.45 18.0513 9.45 17.4578V10.9058ZM15.75 4.36364H19.9584C20.5212 4.36364 21 4.85236 21 5.45455C21 6.06109 20.5338 6.54545 19.9584 6.54545H1.0416C0.478801 6.54545 3.03769e-07 6.05673 3.03769e-07 5.45455C3.03769e-07 4.848 0.466201 4.36364 1.0416 4.36364H5.25V3.27273C5.25 1.46945 6.66015 0 8.4 0H12.599C14.3336 0 15.749 1.46509 15.749 3.27273L15.75 4.36364Z" fill="#060606"/>
</svg>
