<svg preserveAspectRatio="none" width="100%" height="100%" overflow="visible" style="display: block;" viewBox="0 0 12.7491 16.2182" fill="none" xmlns="http://www.w3.org/2000/svg">
<g id="Location Icon">
<path id="Vector" d="M6.37465 0C2.85404 0 5.72205e-06 2.85404 5.72205e-06 6.37464C5.72205e-06 7.94637 0.571426 9.38275 1.51442 10.4942L6.37465 16.2182L11.2347 10.4941C12.1777 9.38276 12.7491 7.94619 12.7491 6.37446C12.7493 2.85404 9.89526 0 6.37465 0ZM6.37465 8.77674C4.92673 8.77674 3.75307 7.60308 3.75307 6.15516C3.75307 4.70724 4.92673 3.53358 6.37465 3.53358C7.82257 3.53358 8.99623 4.70724 8.99623 6.15516C8.99623 7.60308 7.82257 8.77674 6.37465 8.77674Z" fill="var(--fill-0, #7A7877)"/>
</g>
</svg>
