<svg preserveAspectRatio="none" width="100%" height="100%" overflow="visible" style="display: block;" viewBox="0 0 23 22" fill="none" xmlns="http://www.w3.org/2000/svg">
<g id="Vector">
<path fill-rule="evenodd" clip-rule="evenodd" d="M10.2242 0C8.20153 0.000622483 6.22449 0.584627 4.54302 1.67817C2.86156 2.77172 1.55119 4.3257 0.777592 6.14362C0.00399927 7.96154 -0.198076 9.96178 0.196916 11.8914C0.591909 13.821 1.56623 15.5934 2.99669 16.9844C4.42715 18.3755 6.24951 19.3227 8.23334 19.7063C10.2172 20.0899 12.2734 19.8927 14.142 19.1396C16.0107 18.3865 17.6078 17.1114 18.7314 15.4754C19.8551 13.8395 20.4548 11.9161 20.4548 9.94861C20.4536 7.30991 19.3752 4.77969 17.4567 2.91415C15.5383 1.0486 12.9368 0.000416921 10.2242 0ZM10.2242 1.57377C11.927 1.57377 13.5916 2.06495 15.0074 2.98519C16.4232 3.90543 17.5267 5.2134 18.1784 6.7437C18.83 8.274 19.0005 9.9579 18.6683 11.5825C18.3361 13.207 17.5161 14.6993 16.3121 15.8705C15.108 17.0418 13.5739 17.8394 11.9038 18.1625C10.2337 18.4857 8.50265 18.3198 6.92946 17.6859C5.35627 17.0521 4.01165 15.9786 3.06562 14.6014C2.11959 13.2242 1.61465 11.605 1.61465 9.94861C1.61572 7.72778 2.52314 5.59822 4.13751 4.02786C5.75188 2.4575 7.94113 1.57482 10.2242 1.57377Z" fill="var(--fill-0, #414041)"/>
<path fill-rule="evenodd" clip-rule="evenodd" d="M22.753 20.6495L17.6761 15.711C17.6015 15.6358 17.5123 15.5759 17.4136 15.5346C17.3149 15.4934 17.2087 15.4717 17.1013 15.4708C16.9939 15.4699 16.8874 15.4898 16.788 15.5293C16.6885 15.5689 16.5982 15.6273 16.5223 15.7012C16.4463 15.7751 16.3863 15.863 16.3456 15.9597C16.3049 16.0564 16.2844 16.16 16.2854 16.2645C16.2863 16.369 16.3086 16.4722 16.351 16.5682C16.3934 16.6642 16.455 16.751 16.5323 16.8236L21.6092 21.7598C21.6838 21.8349 21.7731 21.8949 21.8718 21.9361C21.9705 21.9774 22.0766 21.9991 22.184 22C22.2914 22.0009 22.398 21.981 22.4974 21.9414C22.5968 21.9018 22.6871 21.8434 22.7631 21.7695C22.839 21.6956 22.8991 21.6078 22.9398 21.5111C22.9804 21.4144 23.0009 21.3108 23 21.2063C22.999 21.1018 22.9767 20.9985 22.9343 20.9025C22.8919 20.8065 22.8303 20.7197 22.753 20.6471V20.6495Z" fill="var(--fill-0, #414041)"/>
</g>
</svg>
