<svg preserveAspectRatio="none" width="100%" height="100%" overflow="visible" style="display: block;" viewBox="0 0 19.8 22" fill="none" xmlns="http://www.w3.org/2000/svg">
<g id="Group 24">
<path id="Ellipse 4" d="M9.89998 0.5C12.6614 0.5 14.9 2.73858 14.9 5.5C14.9 8.26142 12.6614 10.5 9.89998 10.5C7.13855 10.5 4.89998 8.26142 4.89998 5.5C4.89998 2.73858 7.13855 0.5 9.89998 0.5Z" stroke="var(--stroke-0, #414041)"/>
<path id="Rectangle 34" d="M6 12.6H13.7998C16.8374 12.6 19.2998 15.0624 19.2998 18.1V20.0004C19.2996 20.8286 18.6281 21.5004 17.7998 21.5004H2C1.17171 21.5004 0.500215 20.8286 0.5 20.0004V18.1C0.5 15.1574 2.81084 12.7542 5.7168 12.6068L6 12.6Z" stroke="var(--stroke-0, #414041)"/>
</g>
</svg>
