<svg preserveAspectRatio="none" width="100%" height="100%" overflow="visible" style="display: block;" viewBox="0 0 23 19.5" fill="none" xmlns="http://www.w3.org/2000/svg">
<g id="Group 21">
<path id="Vector 5" d="M2.59335 0H0.75C0.335786 0 0 0.335786 0 0.75C0 1.16421 0.335786 1.5 0.75 1.5H1.54471C2.23736 1.5 2.84533 1.96106 3.03216 2.62803L5.65903 12.0054C6.02189 13.3007 7.20263 14.1962 8.54783 14.1962H17.5885C18.9337 14.1962 20.1145 13.3007 20.4773 12.0054L21.9329 6.80923C22.4688 4.89619 21.0308 3 19.0441 3H6.81574C5.86458 3 5.01755 2.39819 4.70455 1.5C4.39154 0.601812 3.54451 0 2.59335 0Z" fill="var(--fill-0, #F36115)"/>
<ellipse id="Ellipse 2" cx="7.31818" cy="17.5" rx="2.09091" ry="2" fill="var(--fill-0, #F36115)"/>
<ellipse id="Ellipse 3" cx="17.7727" cy="17.5" rx="2.09091" ry="2" fill="var(--fill-0, #F36115)"/>
</g>
</svg>
