<svg preserveAspectRatio="none" width="100%" height="100%" overflow="visible" style="display: block;" viewBox="0 0 23.5 20" fill="none" xmlns="http://www.w3.org/2000/svg">
<g id="Group 23">
<path id="Vector 5" d="M3.09335 0.5H1.25C0.835786 0.5 0.5 0.835786 0.5 1.25C0.5 1.66421 0.835786 2 1.25 2H2.04471C2.73736 2 3.34533 2.46106 3.53216 3.12803L6.15903 12.5054C6.52189 13.8007 7.70263 14.6962 9.04783 14.6962H18.0885C19.4337 14.6962 20.6145 13.8007 20.9773 12.5054L22.4329 7.30923C22.9688 5.39619 21.5308 3.5 19.5441 3.5H7.31574C6.36458 3.5 5.51755 2.89819 5.20455 2C4.89154 1.10181 4.04451 0.5 3.09335 0.5Z" stroke="var(--stroke-0, #414041)"/>
<path id="Ellipse 2" d="M7.81809 16.5C8.71791 16.5 9.40891 17.1923 9.40891 18C9.40891 18.8077 8.71791 19.5 7.81809 19.5C6.91832 19.5 6.22727 18.8077 6.22727 18C6.22727 17.1923 6.91832 16.5 7.81809 16.5Z" stroke="var(--stroke-0, #414041)"/>
<path id="Ellipse 3" d="M18.2726 16.5C19.1725 16.5 19.8635 17.1923 19.8635 18C19.8635 18.8077 19.1725 19.5 18.2726 19.5C17.3729 19.5 16.6818 18.8077 16.6818 18C16.6818 17.1923 17.3729 16.5 18.2726 16.5Z" stroke="var(--stroke-0, #414041)"/>
</g>
</svg>
